<mxfile host="app.diagrams.net" modified="2021-10-13T16:51:49.762Z" agent="5.0 (X11; Linux x86_64) AppleWebKit/537.36 (KHTML, like Gecko) Chrome/93.0.4577.63 Safari/537.36" etag="WoVVHqDp6KnfBvtp2r7D" version="15.5.0" type="github">
  <diagram id="R2lEEEUBdFMjLlhIrx00" name="Page-1">
    <mxGraphModel dx="1350" dy="745" grid="1" gridSize="10" guides="1" tooltips="1" connect="1" arrows="1" fold="1" page="1" pageScale="1" pageWidth="850" pageHeight="1100" math="0" shadow="0" extFonts="Permanent Marker^https://fonts.googleapis.com/css?family=Permanent+Marker">
      <root>
        <mxCell id="0" />
        <mxCell id="1" parent="0" />
        <mxCell id="R9kxOcNbnMPacdtnqW63-1" value="Categories" style="ellipse;whiteSpace=wrap;html=1;" vertex="1" parent="1">
          <mxGeometry x="170" y="120" width="100" height="80" as="geometry" />
        </mxCell>
        <mxCell id="R9kxOcNbnMPacdtnqW63-2" value="" style="edgeStyle=entityRelationEdgeStyle;fontSize=12;html=1;endArrow=ERoneToMany;startArrow=ERmandOne;curved=1;" edge="1" parent="1">
          <mxGeometry width="100" height="100" relative="1" as="geometry">
            <mxPoint x="270" y="159.5" as="sourcePoint" />
            <mxPoint x="370" y="159.5" as="targetPoint" />
          </mxGeometry>
        </mxCell>
        <mxCell id="R9kxOcNbnMPacdtnqW63-3" value="Tests" style="ellipse;whiteSpace=wrap;html=1;" vertex="1" parent="1">
          <mxGeometry x="370" y="120" width="100" height="80" as="geometry" />
        </mxCell>
        <mxCell id="R9kxOcNbnMPacdtnqW63-6" value="Questions" style="ellipse;whiteSpace=wrap;html=1;" vertex="1" parent="1">
          <mxGeometry x="580" y="120" width="100" height="80" as="geometry" />
        </mxCell>
        <mxCell id="R9kxOcNbnMPacdtnqW63-10" value="Answers" style="ellipse;whiteSpace=wrap;html=1;" vertex="1" parent="1">
          <mxGeometry x="570" y="270" width="100" height="80" as="geometry" />
        </mxCell>
        <mxCell id="R9kxOcNbnMPacdtnqW63-11" value="" style="fontSize=12;html=1;endArrow=ERoneToMany;startArrow=ERmandOne;exitX=1;exitY=0.5;exitDx=0;exitDy=0;" edge="1" parent="1" source="R9kxOcNbnMPacdtnqW63-3">
          <mxGeometry width="100" height="100" relative="1" as="geometry">
            <mxPoint x="485" y="159.5" as="sourcePoint" />
            <mxPoint x="580" y="160" as="targetPoint" />
          </mxGeometry>
        </mxCell>
        <mxCell id="R9kxOcNbnMPacdtnqW63-23" style="edgeStyle=none;jumpStyle=sharp;jumpSize=4;orthogonalLoop=1;jettySize=auto;html=1;endSize=4;" edge="1" parent="1" source="R9kxOcNbnMPacdtnqW63-12">
          <mxGeometry relative="1" as="geometry">
            <mxPoint x="420" y="370" as="targetPoint" />
          </mxGeometry>
        </mxCell>
        <mxCell id="R9kxOcNbnMPacdtnqW63-12" value="TestUsers" style="ellipse;whiteSpace=wrap;html=1;" vertex="1" parent="1">
          <mxGeometry x="370" y="360" width="100" height="80" as="geometry" />
        </mxCell>
        <mxCell id="R9kxOcNbnMPacdtnqW63-13" value="Users&lt;br&gt;" style="ellipse;whiteSpace=wrap;html=1;" vertex="1" parent="1">
          <mxGeometry x="180" y="260" width="100" height="80" as="geometry" />
        </mxCell>
        <mxCell id="R9kxOcNbnMPacdtnqW63-22" value="" style="edgeStyle=entityRelationEdgeStyle;fontSize=12;html=1;endArrow=ERoneToMany;startArrow=ERmandOne;endSize=4;jumpStyle=sharp;jumpSize=4;" edge="1" parent="1" target="R9kxOcNbnMPacdtnqW63-10">
          <mxGeometry width="100" height="100" relative="1" as="geometry">
            <mxPoint x="640" y="200" as="sourcePoint" />
            <mxPoint x="690" y="290" as="targetPoint" />
          </mxGeometry>
        </mxCell>
        <mxCell id="R9kxOcNbnMPacdtnqW63-24" value="" style="edgeStyle=entityRelationEdgeStyle;fontSize=12;html=1;endArrow=ERoneToMany;startArrow=ERmandOne;endSize=4;jumpStyle=sharp;jumpSize=4;entryX=0.05;entryY=0.7;entryDx=0;entryDy=0;entryPerimeter=0;" edge="1" parent="1" target="R9kxOcNbnMPacdtnqW63-12">
          <mxGeometry width="100" height="100" relative="1" as="geometry">
            <mxPoint x="270" y="330" as="sourcePoint" />
            <mxPoint x="320" y="420" as="targetPoint" />
          </mxGeometry>
        </mxCell>
        <mxCell id="R9kxOcNbnMPacdtnqW63-25" value="" style="edgeStyle=entityRelationEdgeStyle;fontSize=12;html=1;endArrow=ERoneToMany;startArrow=ERmandOne;endSize=4;jumpStyle=sharp;jumpSize=4;exitX=0.5;exitY=1;exitDx=0;exitDy=0;" edge="1" parent="1" source="R9kxOcNbnMPacdtnqW63-3" target="R9kxOcNbnMPacdtnqW63-12">
          <mxGeometry width="100" height="100" relative="1" as="geometry">
            <mxPoint x="350" y="330" as="sourcePoint" />
            <mxPoint x="450" y="230" as="targetPoint" />
          </mxGeometry>
        </mxCell>
        <mxCell id="R9kxOcNbnMPacdtnqW63-28" value="" style="edgeStyle=entityRelationEdgeStyle;fontSize=12;html=1;endArrow=ERoneToMany;startArrow=ERmandOne;endSize=4;jumpStyle=sharp;jumpSize=4;" edge="1" parent="1">
          <mxGeometry width="100" height="100" relative="1" as="geometry">
            <mxPoint x="280" y="280" as="sourcePoint" />
            <mxPoint x="380" y="180" as="targetPoint" />
          </mxGeometry>
        </mxCell>
      </root>
    </mxGraphModel>
  </diagram>
</mxfile>
